<svg xmlns="http://www.w3.org/2000/svg" xmlns:xlink="http://www.w3.org/1999/xlink" width="520" zoomAndPan="magnify" viewBox="0 0 390 389.999986" height="520" preserveAspectRatio="xMidYMid meet" version="1.0"><defs><g/><clipPath id="082317d0e3"><path d="M 38 0.722656 L 249 0.722656 L 249 240 L 38 240 Z M 38 0.722656 " clip-rule="nonzero"/></clipPath><clipPath id="c3b17f8567"><path d="M 0.128906 0.800781 L 334.335938 0.800781 L 334.335938 277.1875 L 0.128906 277.1875 Z M 0.128906 0.800781 " clip-rule="nonzero"/></clipPath><clipPath id="c6af3d747c"><rect x="0" width="269" y="0" height="105"/></clipPath><clipPath id="22d808827d"><rect x="0" width="335" y="0" height="278"/></clipPath></defs><rect x="-39" width="468" fill="#ffffff" y="-38.999999" height="467.999983" fill-opacity="1"/><rect x="-39" width="468" fill="#ffffff" y="-38.999999" height="467.999983" fill-opacity="1"/><g transform="matrix(1, 0, 0, 1, 18, 56)"><g clip-path="url(#22d808827d)"><g clip-path="url(#082317d0e3)"><path fill="#b4b4b4" d="M 59.183594 116.070312 L 112.628906 62.628906 L 97.90625 47.910156 L 38.367188 107.449219 L 38.367188 239.53125 L 229.507812 239.53125 L 229.507812 218.714844 L 59.183594 218.714844 Z M 145.011719 0.804688 L 122.300781 23.515625 L 137.023438 38.234375 L 145.011719 30.246094 L 233.886719 119.121094 L 248.605469 104.398438 L 145.011719 0.804688 " fill-opacity="1" fill-rule="nonzero"/></g><g clip-path="url(#c3b17f8567)"><path fill="#7fa6e5" d="M 334.335938 277.1875 L 0.128906 277.1875 L 0.128906 91.429688 L 90.734375 0.804688 L 194.332031 104.398438 L 179.609375 119.121094 L 90.734375 30.246094 L 20.949219 100.050781 L 20.949219 256.371094 L 334.335938 256.371094 L 334.335938 277.1875 " fill-opacity="1" fill-rule="nonzero"/></g><g transform="matrix(1, 0, 0, 1, 62, 116)"><g clip-path="url(#c6af3d747c)"><g fill="#000000" fill-opacity="1"><g transform="translate(0.270386, 40.867903)"><g><path d="M 2.78125 0 L 2.78125 -25.234375 L 11.546875 -25.234375 C 13.234375 -25.234375 14.773438 -24.988281 16.171875 -24.5 C 17.578125 -24.007812 18.707031 -23.222656 19.5625 -22.140625 C 20.414062 -21.066406 20.84375 -19.6875 20.84375 -18 C 20.84375 -16.21875 20.332031 -14.738281 19.3125 -13.5625 C 18.289062 -12.382812 16.878906 -11.59375 15.078125 -11.1875 L 21.8125 0 L 16.390625 0 L 10.546875 -10.6875 L 7.265625 -10.6875 L 7.265625 0 Z M 10.9375 -14.359375 C 12.488281 -14.359375 13.78125 -14.625 14.8125 -15.15625 C 15.84375 -15.695312 16.359375 -16.65625 16.359375 -18.03125 C 16.359375 -19.269531 15.867188 -20.148438 14.890625 -20.671875 C 13.921875 -21.191406 12.734375 -21.453125 11.328125 -21.453125 L 7.265625 -21.453125 L 7.265625 -14.359375 Z M 10.9375 -14.359375 "/></g></g></g><g fill="#000000" fill-opacity="1"><g transform="translate(22.263596, 40.867903)"><g><path d="M 10.765625 0.5 C 9.003906 0.5 7.425781 0.140625 6.03125 -0.578125 C 4.644531 -1.304688 3.550781 -2.347656 2.75 -3.703125 C 1.957031 -5.054688 1.5625 -6.640625 1.5625 -8.453125 C 1.5625 -10.253906 1.953125 -11.847656 2.734375 -13.234375 C 3.523438 -14.628906 4.609375 -15.707031 5.984375 -16.46875 C 7.367188 -17.226562 8.914062 -17.609375 10.625 -17.609375 C 12.238281 -17.609375 13.664062 -17.253906 14.90625 -16.546875 C 16.15625 -15.847656 17.128906 -14.800781 17.828125 -13.40625 C 18.535156 -12.019531 18.890625 -10.332031 18.890625 -8.34375 C 18.890625 -7.84375 18.878906 -7.460938 18.859375 -7.203125 L 5.84375 -7.203125 C 5.894531 -6.410156 6.148438 -5.691406 6.609375 -5.046875 C 7.078125 -4.410156 7.671875 -3.910156 8.390625 -3.546875 C 9.117188 -3.179688 9.898438 -3 10.734375 -3 C 12.703125 -3 14.207031 -3.734375 15.25 -5.203125 L 18.109375 -2.921875 C 16.421875 -0.640625 13.972656 0.5 10.765625 0.5 Z M 14.609375 -10.265625 C 14.609375 -11.023438 14.457031 -11.71875 14.15625 -12.34375 C 13.863281 -12.976562 13.414062 -13.476562 12.8125 -13.84375 C 12.207031 -14.21875 11.460938 -14.40625 10.578125 -14.40625 C 9.753906 -14.40625 8.988281 -14.222656 8.28125 -13.859375 C 7.582031 -13.503906 7.015625 -13.007812 6.578125 -12.375 C 6.140625 -11.75 5.894531 -11.046875 5.84375 -10.265625 Z M 14.609375 -10.265625 "/></g></g></g><g fill="#000000" fill-opacity="1"><g transform="translate(42.724059, 40.867903)"><g><path d="M 10.828125 0.5 C 9.117188 0.5 7.5625 0.140625 6.15625 -0.578125 C 4.757812 -1.304688 3.644531 -2.351562 2.8125 -3.71875 C 1.976562 -5.09375 1.5625 -6.703125 1.5625 -8.546875 C 1.5625 -10.359375 1.972656 -11.945312 2.796875 -13.3125 C 3.617188 -14.675781 4.722656 -15.734375 6.109375 -16.484375 C 7.503906 -17.234375 9.046875 -17.609375 10.734375 -17.609375 C 11.984375 -17.609375 13.203125 -17.367188 14.390625 -16.890625 C 15.585938 -16.421875 16.515625 -15.769531 17.171875 -14.9375 L 14.25 -12.375 C 13.914062 -12.84375 13.414062 -13.238281 12.75 -13.5625 C 12.09375 -13.882812 11.421875 -14.046875 10.734375 -14.046875 C 9.734375 -14.046875 8.875 -13.78125 8.15625 -13.25 C 7.445312 -12.726562 6.910156 -12.046875 6.546875 -11.203125 C 6.191406 -10.359375 6.015625 -9.472656 6.015625 -8.546875 C 6.015625 -7.617188 6.195312 -6.734375 6.5625 -5.890625 C 6.9375 -5.054688 7.492188 -4.375 8.234375 -3.84375 C 8.972656 -3.320312 9.851562 -3.0625 10.875 -3.0625 C 11.5625 -3.0625 12.226562 -3.195312 12.875 -3.46875 C 13.53125 -3.75 14.0625 -4.125 14.46875 -4.59375 L 17.140625 -1.890625 C 16.429688 -1.128906 15.523438 -0.539062 14.421875 -0.125 C 13.316406 0.289062 12.117188 0.5 10.828125 0.5 Z M 10.828125 0.5 "/></g></g></g><g fill="#000000" fill-opacity="1"><g transform="translate(60.119016, 40.867903)"><g><path d="M 10.875 0.5 C 9.15625 0.5 7.582031 0.113281 6.15625 -0.65625 C 4.738281 -1.425781 3.617188 -2.503906 2.796875 -3.890625 C 1.972656 -5.285156 1.5625 -6.863281 1.5625 -8.625 C 1.5625 -10.382812 1.972656 -11.945312 2.796875 -13.3125 C 3.617188 -14.675781 4.738281 -15.734375 6.15625 -16.484375 C 7.582031 -17.234375 9.15625 -17.609375 10.875 -17.609375 C 12.582031 -17.609375 14.148438 -17.234375 15.578125 -16.484375 C 17.003906 -15.734375 18.125 -14.675781 18.9375 -13.3125 C 19.757812 -11.945312 20.171875 -10.382812 20.171875 -8.625 C 20.171875 -6.863281 19.757812 -5.285156 18.9375 -3.890625 C 18.125 -2.503906 17.003906 -1.425781 15.578125 -0.65625 C 14.148438 0.113281 12.582031 0.5 10.875 0.5 Z M 10.875 -3.0625 C 11.9375 -3.0625 12.84375 -3.328125 13.59375 -3.859375 C 14.34375 -4.398438 14.898438 -5.097656 15.265625 -5.953125 C 15.640625 -6.804688 15.828125 -7.695312 15.828125 -8.625 C 15.828125 -9.550781 15.640625 -10.4375 15.265625 -11.28125 C 14.898438 -12.125 14.34375 -12.804688 13.59375 -13.328125 C 12.84375 -13.847656 11.9375 -14.109375 10.875 -14.109375 C 9.800781 -14.109375 8.890625 -13.847656 8.140625 -13.328125 C 7.390625 -12.804688 6.832031 -12.125 6.46875 -11.28125 C 6.101562 -10.4375 5.921875 -9.550781 5.921875 -8.625 C 5.921875 -7.695312 6.101562 -6.804688 6.46875 -5.953125 C 6.832031 -5.097656 7.390625 -4.398438 8.140625 -3.859375 C 8.890625 -3.328125 9.800781 -3.0625 10.875 -3.0625 Z M 10.875 -3.0625 "/></g></g></g><g fill="#000000" fill-opacity="1"><g transform="translate(81.862715, 40.867903)"><g><path d="M 2.5625 -13.515625 L 2.5625 -17.25 L 6.625 -17.25 L 6.625 -14.5 L 6.703125 -14.5 C 6.960938 -15.09375 7.347656 -15.632812 7.859375 -16.125 C 8.367188 -16.613281 8.984375 -17.003906 9.703125 -17.296875 C 10.429688 -17.597656 11.203125 -17.75 12.015625 -17.75 C 13.441406 -17.75 14.625 -17.425781 15.5625 -16.78125 C 16.5 -16.144531 17.191406 -15.300781 17.640625 -14.25 C 18.085938 -13.207031 18.3125 -12.066406 18.3125 -10.828125 L 18.3125 0 L 14.046875 0 L 14.046875 -9.625 C 14.046875 -12.664062 12.972656 -14.1875 10.828125 -14.1875 C 9.972656 -14.1875 9.242188 -13.960938 8.640625 -13.515625 C 8.035156 -13.078125 7.582031 -12.503906 7.28125 -11.796875 C 6.988281 -11.085938 6.84375 -10.335938 6.84375 -9.546875 L 6.84375 0 L 2.5625 0 Z M 2.5625 -13.515625 "/></g></g></g><g fill="#000000" fill-opacity="1"><g transform="translate(102.608344, 40.867903)"><g><path d="M 7.5625 0.5 C 6.207031 0.5 4.898438 0.25 3.640625 -0.25 C 2.378906 -0.75 1.34375 -1.4375 0.53125 -2.3125 L 3.34375 -4.953125 C 3.820312 -4.304688 4.445312 -3.785156 5.21875 -3.390625 C 5.988281 -3.003906 6.828125 -2.8125 7.734375 -2.8125 C 8.472656 -2.8125 9.113281 -2.976562 9.65625 -3.3125 C 10.207031 -3.644531 10.484375 -4.15625 10.484375 -4.84375 C 10.484375 -5.300781 10.335938 -5.671875 10.046875 -5.953125 C 9.765625 -6.234375 9.363281 -6.46875 8.84375 -6.65625 C 8.320312 -6.851562 7.5625 -7.070312 6.5625 -7.3125 C 5.5625 -7.539062 4.695312 -7.828125 3.96875 -8.171875 C 3.25 -8.523438 2.65625 -9.023438 2.1875 -9.671875 C 1.726562 -10.328125 1.5 -11.15625 1.5 -12.15625 C 1.5 -13.363281 1.816406 -14.378906 2.453125 -15.203125 C 3.097656 -16.023438 3.9375 -16.628906 4.96875 -17.015625 C 6 -17.410156 7.109375 -17.609375 8.296875 -17.609375 C 9.585938 -17.609375 10.8125 -17.378906 11.96875 -16.921875 C 13.132812 -16.472656 14.050781 -15.832031 14.71875 -15 L 11.9375 -12.546875 C 11.53125 -13.066406 10.992188 -13.503906 10.328125 -13.859375 C 9.671875 -14.222656 8.960938 -14.40625 8.203125 -14.40625 C 7.441406 -14.40625 6.789062 -14.25 6.25 -13.9375 C 5.71875 -13.625 5.453125 -13.160156 5.453125 -12.546875 C 5.453125 -12.117188 5.585938 -11.773438 5.859375 -11.515625 C 6.128906 -11.253906 6.507812 -11.046875 7 -10.890625 C 7.488281 -10.734375 8.207031 -10.535156 9.15625 -10.296875 C 10.769531 -9.921875 12.09375 -9.351562 13.125 -8.59375 C 14.164062 -7.832031 14.6875 -6.703125 14.6875 -5.203125 C 14.6875 -3.867188 14.363281 -2.78125 13.71875 -1.9375 C 13.082031 -1.09375 12.226562 -0.472656 11.15625 -0.078125 C 10.082031 0.304688 8.882812 0.5 7.5625 0.5 Z M 7.5625 0.5 "/></g></g></g><g fill="#000000" fill-opacity="1"><g transform="translate(118.4349, 40.867903)"><g><path d="M 8.65625 0.359375 C 6.570312 0.359375 5.125 -0.179688 4.3125 -1.265625 C 3.5 -2.347656 3.09375 -3.828125 3.09375 -5.703125 L 3.09375 -13.828125 L 0.109375 -13.828125 L 0.109375 -17.25 L 3.09375 -17.25 L 3.09375 -22.140625 L 7.3125 -22.140625 L 7.3125 -17.25 L 11.578125 -17.25 L 11.578125 -13.828125 L 7.3125 -13.828125 L 7.3125 -5.734375 C 7.3125 -4.878906 7.460938 -4.222656 7.765625 -3.765625 C 8.078125 -3.316406 8.671875 -3.09375 9.546875 -3.09375 C 9.859375 -3.09375 10.179688 -3.125 10.515625 -3.1875 C 10.847656 -3.25 11.132812 -3.335938 11.375 -3.453125 L 11.515625 -0.109375 C 11.128906 0.0351562 10.675781 0.148438 10.15625 0.234375 C 9.632812 0.316406 9.132812 0.359375 8.65625 0.359375 Z M 8.65625 0.359375 "/></g></g></g><g fill="#000000" fill-opacity="1"><g transform="translate(130.554334, 40.867903)"><g><path d="M 2.5625 -13.90625 L 2.5625 -17.25 L 6.671875 -17.25 L 6.671875 -14.40625 L 6.734375 -14.40625 C 7.210938 -15.425781 7.890625 -16.238281 8.765625 -16.84375 C 9.648438 -17.445312 10.632812 -17.75 11.71875 -17.75 C 12.125 -17.75 12.472656 -17.710938 12.765625 -17.640625 L 12.765625 -13.71875 C 12.285156 -13.84375 11.84375 -13.90625 11.4375 -13.90625 C 10.269531 -13.90625 9.34375 -13.628906 8.65625 -13.078125 C 7.96875 -12.535156 7.492188 -11.910156 7.234375 -11.203125 C 6.972656 -10.503906 6.84375 -9.867188 6.84375 -9.296875 L 6.84375 0 L 2.5625 0 Z M 2.5625 -13.90625 "/></g></g></g><g fill="#000000" fill-opacity="1"><g transform="translate(143.52927, 40.867903)"><g><path d="M 8.734375 0.5 C 7.304688 0.5 6.125 0.179688 5.1875 -0.453125 C 4.25 -1.097656 3.550781 -1.941406 3.09375 -2.984375 C 2.644531 -4.035156 2.421875 -5.179688 2.421875 -6.421875 L 2.421875 -17.25 L 6.703125 -17.25 L 6.703125 -7.625 C 6.703125 -4.582031 7.769531 -3.0625 9.90625 -3.0625 C 10.757812 -3.0625 11.488281 -3.28125 12.09375 -3.71875 C 12.707031 -4.164062 13.160156 -4.742188 13.453125 -5.453125 C 13.753906 -6.160156 13.90625 -6.910156 13.90625 -7.703125 L 13.90625 -17.25 L 18.171875 -17.25 L 18.171875 0 L 14.109375 0 L 14.109375 -2.75 L 14.046875 -2.75 C 13.785156 -2.15625 13.398438 -1.613281 12.890625 -1.125 C 12.378906 -0.632812 11.757812 -0.242188 11.03125 0.046875 C 10.300781 0.347656 9.535156 0.5 8.734375 0.5 Z M 8.734375 0.5 "/></g></g></g><g fill="#000000" fill-opacity="1"><g transform="translate(164.274893, 40.867903)"><g><path d="M 3.703125 8.546875 C 2.921875 8.546875 2.1875 8.460938 1.5 8.296875 L 1.859375 4.59375 C 2.378906 4.757812 2.910156 4.84375 3.453125 4.84375 C 4.046875 4.84375 4.519531 4.75 4.875 4.5625 C 5.238281 4.375 5.53125 4.097656 5.75 3.734375 C 5.976562 3.378906 6.222656 2.859375 6.484375 2.171875 L 7.34375 0 L 0 -17.25 L 4.734375 -17.25 L 9.515625 -4.671875 L 9.59375 -4.671875 L 13.828125 -17.25 L 18.28125 -17.25 L 10.1875 3.671875 C 9.757812 4.785156 9.285156 5.691406 8.765625 6.390625 C 8.242188 7.097656 7.570312 7.632812 6.75 8 C 5.9375 8.363281 4.921875 8.546875 3.703125 8.546875 Z M 3.703125 8.546875 "/></g></g></g><g fill="#000000" fill-opacity="1"><g transform="translate(182.560982, 40.867903)"><g><path d="M 10.765625 0.5 C 9.003906 0.5 7.425781 0.140625 6.03125 -0.578125 C 4.644531 -1.304688 3.550781 -2.347656 2.75 -3.703125 C 1.957031 -5.054688 1.5625 -6.640625 1.5625 -8.453125 C 1.5625 -10.253906 1.953125 -11.847656 2.734375 -13.234375 C 3.523438 -14.628906 4.609375 -15.707031 5.984375 -16.46875 C 7.367188 -17.226562 8.914062 -17.609375 10.625 -17.609375 C 12.238281 -17.609375 13.664062 -17.253906 14.90625 -16.546875 C 16.15625 -15.847656 17.128906 -14.800781 17.828125 -13.40625 C 18.535156 -12.019531 18.890625 -10.332031 18.890625 -8.34375 C 18.890625 -7.84375 18.878906 -7.460938 18.859375 -7.203125 L 5.84375 -7.203125 C 5.894531 -6.410156 6.148438 -5.691406 6.609375 -5.046875 C 7.078125 -4.410156 7.671875 -3.910156 8.390625 -3.546875 C 9.117188 -3.179688 9.898438 -3 10.734375 -3 C 12.703125 -3 14.207031 -3.734375 15.25 -5.203125 L 18.109375 -2.921875 C 16.421875 -0.640625 13.972656 0.5 10.765625 0.5 Z M 14.609375 -10.265625 C 14.609375 -11.023438 14.457031 -11.71875 14.15625 -12.34375 C 13.863281 -12.976562 13.414062 -13.476562 12.8125 -13.84375 C 12.207031 -14.21875 11.460938 -14.40625 10.578125 -14.40625 C 9.753906 -14.40625 8.988281 -14.222656 8.28125 -13.859375 C 7.582031 -13.503906 7.015625 -13.007812 6.578125 -12.375 C 6.140625 -11.75 5.894531 -11.046875 5.84375 -10.265625 Z M 14.609375 -10.265625 "/></g></g></g><g fill="#000000" fill-opacity="1"><g transform="translate(203.021446, 40.867903)"><g><path d="M 2.5625 -13.515625 L 2.5625 -17.25 L 6.625 -17.25 L 6.625 -14.5 L 6.703125 -14.5 C 6.960938 -15.09375 7.347656 -15.632812 7.859375 -16.125 C 8.367188 -16.613281 8.984375 -17.003906 9.703125 -17.296875 C 10.429688 -17.597656 11.203125 -17.75 12.015625 -17.75 C 13.441406 -17.75 14.625 -17.425781 15.5625 -16.78125 C 16.5 -16.144531 17.191406 -15.300781 17.640625 -14.25 C 18.085938 -13.207031 18.3125 -12.066406 18.3125 -10.828125 L 18.3125 0 L 14.046875 0 L 14.046875 -9.625 C 14.046875 -12.664062 12.972656 -14.1875 10.828125 -14.1875 C 9.972656 -14.1875 9.242188 -13.960938 8.640625 -13.515625 C 8.035156 -13.078125 7.582031 -12.503906 7.28125 -11.796875 C 6.988281 -11.085938 6.84375 -10.335938 6.84375 -9.546875 L 6.84375 0 L 2.5625 0 Z M 2.5625 -13.515625 "/></g></g></g><g fill="#000000" fill-opacity="1"><g transform="translate(223.767068, 40.867903)"><g><path d="M 9.9375 0.5 C 8.25 0.5 6.769531 0.09375 5.5 -0.71875 C 4.226562 -1.539062 3.25 -2.644531 2.5625 -4.03125 C 1.875 -5.425781 1.53125 -6.957031 1.53125 -8.625 C 1.53125 -10.289062 1.882812 -11.8125 2.59375 -13.1875 C 3.3125 -14.5625 4.300781 -15.640625 5.5625 -16.421875 C 6.820312 -17.210938 8.25 -17.609375 9.84375 -17.609375 C 12.238281 -17.609375 14.148438 -16.71875 15.578125 -14.9375 L 15.6875 -14.9375 L 15.6875 -26.9375 L 19.953125 -26.9375 L 19.953125 0 L 15.890625 0 L 15.890625 -2.5625 L 15.828125 -2.5625 C 15.253906 -1.59375 14.429688 -0.835938 13.359375 -0.296875 C 12.296875 0.234375 11.15625 0.5 9.9375 0.5 Z M 10.796875 -3.0625 C 11.796875 -3.0625 12.675781 -3.328125 13.4375 -3.859375 C 14.195312 -4.398438 14.785156 -5.09375 15.203125 -5.9375 C 15.617188 -6.78125 15.828125 -7.648438 15.828125 -8.546875 C 15.828125 -9.453125 15.617188 -10.335938 15.203125 -11.203125 C 14.785156 -12.078125 14.195312 -12.78125 13.4375 -13.3125 C 12.675781 -13.84375 11.796875 -14.109375 10.796875 -14.109375 C 9.753906 -14.109375 8.859375 -13.847656 8.109375 -13.328125 C 7.359375 -12.804688 6.796875 -12.125 6.421875 -11.28125 C 6.054688 -10.4375 5.875 -9.550781 5.875 -8.625 C 5.875 -7.695312 6.054688 -6.804688 6.421875 -5.953125 C 6.796875 -5.097656 7.359375 -4.398438 8.109375 -3.859375 C 8.859375 -3.328125 9.753906 -3.0625 10.796875 -3.0625 Z M 10.796875 -3.0625 "/></g></g></g><g fill="#000000" fill-opacity="1"><g transform="translate(246.366264, 40.867903)"><g><path d="M 10.875 0.5 C 9.15625 0.5 7.582031 0.113281 6.15625 -0.65625 C 4.738281 -1.425781 3.617188 -2.503906 2.796875 -3.890625 C 1.972656 -5.285156 1.5625 -6.863281 1.5625 -8.625 C 1.5625 -10.382812 1.972656 -11.945312 2.796875 -13.3125 C 3.617188 -14.675781 4.738281 -15.734375 6.15625 -16.484375 C 7.582031 -17.234375 9.15625 -17.609375 10.875 -17.609375 C 12.582031 -17.609375 14.148438 -17.234375 15.578125 -16.484375 C 17.003906 -15.734375 18.125 -14.675781 18.9375 -13.3125 C 19.757812 -11.945312 20.171875 -10.382812 20.171875 -8.625 C 20.171875 -6.863281 19.757812 -5.285156 18.9375 -3.890625 C 18.125 -2.503906 17.003906 -1.425781 15.578125 -0.65625 C 14.148438 0.113281 12.582031 0.5 10.875 0.5 Z M 10.875 -3.0625 C 11.9375 -3.0625 12.84375 -3.328125 13.59375 -3.859375 C 14.34375 -4.398438 14.898438 -5.097656 15.265625 -5.953125 C 15.640625 -6.804688 15.828125 -7.695312 15.828125 -8.625 C 15.828125 -9.550781 15.640625 -10.4375 15.265625 -11.28125 C 14.898438 -12.125 14.34375 -12.804688 13.59375 -13.328125 C 12.84375 -13.847656 11.9375 -14.109375 10.875 -14.109375 C 9.800781 -14.109375 8.890625 -13.847656 8.140625 -13.328125 C 7.390625 -12.804688 6.832031 -12.125 6.46875 -11.28125 C 6.101562 -10.4375 5.921875 -9.550781 5.921875 -8.625 C 5.921875 -7.695312 6.101562 -6.804688 6.46875 -5.953125 C 6.832031 -5.097656 7.390625 -4.398438 8.140625 -3.859375 C 8.890625 -3.328125 9.800781 -3.0625 10.875 -3.0625 Z M 10.875 -3.0625 "/></g></g></g><g fill="#000000" fill-opacity="1"><g transform="translate(44.4845, 92.230851)"><g><path d="M 14.171875 0 L 10.09375 0 L -0.375 -26.484375 L 4.90625 -26.484375 L 12.1875 -6.09375 L 12.34375 -6.09375 L 19.71875 -26.484375 L 24.796875 -26.484375 Z M 14.171875 0 "/></g></g></g><g fill="#000000" fill-opacity="1"><g transform="translate(67.335004, 92.230851)"><g><path d="M 11.296875 0.53125 C 9.453125 0.53125 7.800781 0.148438 6.34375 -0.609375 C 4.882812 -1.378906 3.734375 -2.472656 2.890625 -3.890625 C 2.054688 -5.304688 1.640625 -6.960938 1.640625 -8.859375 C 1.640625 -10.753906 2.050781 -12.429688 2.875 -13.890625 C 3.695312 -15.347656 4.832031 -16.476562 6.28125 -17.28125 C 7.726562 -18.082031 9.347656 -18.484375 11.140625 -18.484375 C 12.835938 -18.484375 14.34375 -18.113281 15.65625 -17.375 C 16.96875 -16.632812 17.988281 -15.535156 18.71875 -14.078125 C 19.457031 -12.617188 19.828125 -10.84375 19.828125 -8.75 C 19.828125 -8.226562 19.8125 -7.832031 19.78125 -7.5625 L 6.140625 -7.5625 C 6.179688 -6.738281 6.445312 -5.988281 6.9375 -5.3125 C 7.425781 -4.632812 8.050781 -4.101562 8.8125 -3.71875 C 9.570312 -3.332031 10.390625 -3.140625 11.265625 -3.140625 C 13.328125 -3.140625 14.910156 -3.914062 16.015625 -5.46875 L 19 -3.0625 C 17.226562 -0.664062 14.660156 0.53125 11.296875 0.53125 Z M 15.34375 -10.765625 C 15.34375 -11.566406 15.1875 -12.296875 14.875 -12.953125 C 14.5625 -13.617188 14.085938 -14.144531 13.453125 -14.53125 C 12.816406 -14.914062 12.035156 -15.109375 11.109375 -15.109375 C 10.234375 -15.109375 9.425781 -14.921875 8.6875 -14.546875 C 7.957031 -14.171875 7.359375 -13.648438 6.890625 -12.984375 C 6.429688 -12.328125 6.179688 -11.585938 6.140625 -10.765625 Z M 15.34375 -10.765625 "/></g></g></g><g fill="#000000" fill-opacity="1"><g transform="translate(88.801821, 92.230851)"><g><path d="M 2.6875 -14.171875 L 2.6875 -18.109375 L 6.953125 -18.109375 L 6.953125 -15.21875 L 7.03125 -15.21875 C 7.300781 -15.84375 7.703125 -16.410156 8.234375 -16.921875 C 8.773438 -17.429688 9.425781 -17.84375 10.1875 -18.15625 C 10.945312 -18.46875 11.753906 -18.625 12.609375 -18.625 C 14.097656 -18.625 15.335938 -18.285156 16.328125 -17.609375 C 17.316406 -16.941406 18.046875 -16.054688 18.515625 -14.953125 C 18.992188 -13.859375 19.234375 -12.664062 19.234375 -11.375 L 19.234375 0 L 14.734375 0 L 14.734375 -10.09375 C 14.734375 -13.289062 13.613281 -14.890625 11.375 -14.890625 C 10.476562 -14.890625 9.707031 -14.65625 9.0625 -14.1875 C 8.425781 -13.726562 7.953125 -13.125 7.640625 -12.375 C 7.335938 -11.632812 7.1875 -10.851562 7.1875 -10.03125 L 7.1875 0 L 2.6875 0 Z M 2.6875 -14.171875 "/></g></g></g><g fill="#000000" fill-opacity="1"><g transform="translate(110.567826, 92.230851)"><g><path d="M 11.296875 0.53125 C 9.453125 0.53125 7.800781 0.148438 6.34375 -0.609375 C 4.882812 -1.378906 3.734375 -2.472656 2.890625 -3.890625 C 2.054688 -5.304688 1.640625 -6.960938 1.640625 -8.859375 C 1.640625 -10.753906 2.050781 -12.429688 2.875 -13.890625 C 3.695312 -15.347656 4.832031 -16.476562 6.28125 -17.28125 C 7.726562 -18.082031 9.347656 -18.484375 11.140625 -18.484375 C 12.835938 -18.484375 14.34375 -18.113281 15.65625 -17.375 C 16.96875 -16.632812 17.988281 -15.535156 18.71875 -14.078125 C 19.457031 -12.617188 19.828125 -10.84375 19.828125 -8.75 C 19.828125 -8.226562 19.8125 -7.832031 19.78125 -7.5625 L 6.140625 -7.5625 C 6.179688 -6.738281 6.445312 -5.988281 6.9375 -5.3125 C 7.425781 -4.632812 8.050781 -4.101562 8.8125 -3.71875 C 9.570312 -3.332031 10.390625 -3.140625 11.265625 -3.140625 C 13.328125 -3.140625 14.910156 -3.914062 16.015625 -5.46875 L 19 -3.0625 C 17.226562 -0.664062 14.660156 0.53125 11.296875 0.53125 Z M 15.34375 -10.765625 C 15.34375 -11.566406 15.1875 -12.296875 14.875 -12.953125 C 14.5625 -13.617188 14.085938 -14.144531 13.453125 -14.53125 C 12.816406 -14.914062 12.035156 -15.109375 11.109375 -15.109375 C 10.234375 -15.109375 9.425781 -14.921875 8.6875 -14.546875 C 7.957031 -14.171875 7.359375 -13.648438 6.890625 -12.984375 C 6.429688 -12.328125 6.179688 -11.585938 6.140625 -10.765625 Z M 15.34375 -10.765625 "/></g></g></g><g fill="#000000" fill-opacity="1"><g transform="translate(132.034643, 92.230851)"><g><path d="M 16.765625 0 L 1.265625 0 L 1.265625 -3.96875 L 10.953125 -14.515625 L 1.71875 -14.515625 L 1.71875 -18.109375 L 16.3125 -18.109375 L 16.3125 -14.140625 L 6.578125 -3.671875 L 16.765625 -3.671875 Z M 16.765625 0 "/></g></g></g><g fill="#000000" fill-opacity="1"><g transform="translate(150.060785, 92.230851)"><g><path d="M 9.171875 0.53125 C 7.671875 0.53125 6.425781 0.191406 5.4375 -0.484375 C 4.457031 -1.160156 3.726562 -2.046875 3.25 -3.140625 C 2.78125 -4.234375 2.546875 -5.429688 2.546875 -6.734375 L 2.546875 -18.109375 L 7.03125 -18.109375 L 7.03125 -8 C 7.03125 -4.8125 8.15625 -3.21875 10.40625 -3.21875 C 11.300781 -3.21875 12.066406 -3.445312 12.703125 -3.90625 C 13.335938 -4.363281 13.8125 -4.96875 14.125 -5.71875 C 14.4375 -6.46875 14.59375 -7.253906 14.59375 -8.078125 L 14.59375 -18.109375 L 19.078125 -18.109375 L 19.078125 0 L 14.8125 0 L 14.8125 -2.875 L 14.734375 -2.875 C 14.460938 -2.25 14.054688 -1.679688 13.515625 -1.171875 C 12.984375 -0.660156 12.335938 -0.25 11.578125 0.0625 C 10.816406 0.375 10.015625 0.53125 9.171875 0.53125 Z M 9.171875 0.53125 "/></g></g></g><g fill="#000000" fill-opacity="1"><g transform="translate(171.826784, 92.230851)"><g><path d="M 11.296875 0.53125 C 9.453125 0.53125 7.800781 0.148438 6.34375 -0.609375 C 4.882812 -1.378906 3.734375 -2.472656 2.890625 -3.890625 C 2.054688 -5.304688 1.640625 -6.960938 1.640625 -8.859375 C 1.640625 -10.753906 2.050781 -12.429688 2.875 -13.890625 C 3.695312 -15.347656 4.832031 -16.476562 6.28125 -17.28125 C 7.726562 -18.082031 9.347656 -18.484375 11.140625 -18.484375 C 12.835938 -18.484375 14.34375 -18.113281 15.65625 -17.375 C 16.96875 -16.632812 17.988281 -15.535156 18.71875 -14.078125 C 19.457031 -12.617188 19.828125 -10.84375 19.828125 -8.75 C 19.828125 -8.226562 19.8125 -7.832031 19.78125 -7.5625 L 6.140625 -7.5625 C 6.179688 -6.738281 6.445312 -5.988281 6.9375 -5.3125 C 7.425781 -4.632812 8.050781 -4.101562 8.8125 -3.71875 C 9.570312 -3.332031 10.390625 -3.140625 11.265625 -3.140625 C 13.328125 -3.140625 14.910156 -3.914062 16.015625 -5.46875 L 19 -3.0625 C 17.226562 -0.664062 14.660156 0.53125 11.296875 0.53125 Z M 15.34375 -10.765625 C 15.34375 -11.566406 15.1875 -12.296875 14.875 -12.953125 C 14.5625 -13.617188 14.085938 -14.144531 13.453125 -14.53125 C 12.816406 -14.914062 12.035156 -15.109375 11.109375 -15.109375 C 10.234375 -15.109375 9.425781 -14.921875 8.6875 -14.546875 C 7.957031 -14.171875 7.359375 -13.648438 6.890625 -12.984375 C 6.429688 -12.328125 6.179688 -11.585938 6.140625 -10.765625 Z M 15.34375 -10.765625 "/></g></g></g><g fill="#000000" fill-opacity="1"><g transform="translate(193.293613, 92.230851)"><g><path d="M 7.25 0 L 2.765625 0 L 2.765625 -28.28125 L 7.25 -28.28125 Z M 7.25 0 "/></g></g></g><g fill="#000000" fill-opacity="1"><g transform="translate(203.316444, 92.230851)"><g><path d="M 8.15625 0.453125 C 7.082031 0.453125 6.035156 0.265625 5.015625 -0.109375 C 3.992188 -0.484375 3.140625 -1.085938 2.453125 -1.921875 C 1.765625 -2.753906 1.421875 -3.820312 1.421875 -5.125 C 1.421875 -7.519531 2.570312 -9.132812 4.875 -9.96875 C 7.1875 -10.800781 10.113281 -11.21875 13.65625 -11.21875 L 13.765625 -11.21875 L 13.765625 -11.671875 C 13.765625 -12.710938 13.378906 -13.519531 12.609375 -14.09375 C 11.835938 -14.675781 10.851562 -14.96875 9.65625 -14.96875 C 8.726562 -14.96875 7.828125 -14.769531 6.953125 -14.375 C 6.078125 -13.988281 5.34375 -13.5 4.75 -12.90625 L 2.4375 -15.640625 C 3.425781 -16.554688 4.585938 -17.257812 5.921875 -17.75 C 7.265625 -18.238281 8.632812 -18.484375 10.03125 -18.484375 C 12.945312 -18.484375 15.007812 -17.757812 16.21875 -16.3125 C 17.425781 -14.863281 18.03125 -13.066406 18.03125 -10.921875 L 18.03125 0 L 13.84375 0 L 13.84375 -2.28125 L 13.734375 -2.28125 C 13.285156 -1.476562 12.554688 -0.820312 11.546875 -0.3125 C 10.535156 0.195312 9.40625 0.453125 8.15625 0.453125 Z M 9.046875 -2.953125 C 10.566406 -2.953125 11.734375 -3.359375 12.546875 -4.171875 C 13.359375 -4.984375 13.765625 -6.113281 13.765625 -7.5625 L 13.765625 -8.1875 L 12.75 -8.1875 C 10.851562 -8.1875 9.238281 -7.976562 7.90625 -7.5625 C 6.570312 -7.15625 5.90625 -6.367188 5.90625 -5.203125 C 5.90625 -4.398438 6.210938 -3.820312 6.828125 -3.46875 C 7.441406 -3.125 8.179688 -2.953125 9.046875 -2.953125 Z M 9.046875 -2.953125 "/></g></g></g></g></g></g></g></svg>